name C:/MyDriveSym/Projects/mobilecap/Data\Session20210816_0002\mocap\ForceDataProcessed\walking2_forces.mot
datacolumns 19
datarows 17
range 0.00000000 0.00800000
endheader 
time	R_ground_force_vx	R_ground_force_vy	R_ground_force_vz	R_ground_force_px	R_ground_force_py	R_ground_force_pz	R_ground_torque_x	R_ground_torque_y	R_ground_torque_z	L_ground_force_vx	L_ground_force_vy	L_ground_force_vz	L_ground_force_px	L_ground_force_py	L_ground_force_pz	L_ground_torque_x	L_ground_torque_y	L_ground_torque_z	
          0.00000000	        -14.99993300	        146.38497000	          4.97111500	          0.13293200	          0.00600000	         -0.22213700	          0.00000000	          0.16638500	          0.00000000	          0.00000000	          0.00000000	          0.00000000	          0.73985600	          0.00000000	         -0.22117200	          0.00000000	          0.00000000	          0.00000000	
          0.00050000	        -15.33390800	        148.43187600	          4.97757800	          0.13293200	          0.00600000	         -0.22213700	          0.00000000	          0.16647500	          0.00000000	          0.00000000	          0.00000000	          0.00000000	          0.73985600	          0.00000000	         -0.22117200	          0.00000000	          0.00000000	          0.00000000	
          0.00100000	        -15.67104100	        150.49004100	          4.98365600	          0.13293200	          0.00600000	         -0.22213700	          0.00000000	          0.16657400	          0.00000000	          0.00000000	          0.00000000	          0.00000000	          0.73985600	          0.00000000	         -0.22117200	          0.00000000	          0.00000000	          0.00000000	
          0.00150000	        -16.01133400	        152.55934000	          4.98934000	          0.13293200	          0.00600000	         -0.22213700	          0.00000000	          0.16668200	          0.00000000	          0.00000000	          0.00000000	          0.00000000	          0.73985600	          0.00000000	         -0.22117200	          0.00000000	          0.00000000	          0.00000000	
          0.00200000	        -16.35479000	        154.63964500	          4.99462100	          0.13305000	          0.00600000	         -0.22211900	          0.00000000	          0.16679800	          0.00000000	          0.00000000	          0.00000000	          0.00000000	          0.73985600	          0.00000000	         -0.22117200	          0.00000000	          0.00000000	          0.00000000	
          0.00250000	        -16.70141100	        156.73082500	          4.99949100	          0.13316800	          0.00600000	         -0.22209900	          0.00000000	          0.16692400	          0.00000000	          0.00000000	          0.00000000	          0.00000000	          0.73985600	          0.00000000	         -0.22117200	          0.00000000	          0.00000000	          0.00000000	
          0.00300000	        -17.05119900	        158.83274300	          5.00394200	          0.13328700	          0.00600000	         -0.22208000	          0.00000000	          0.16705900	          0.00000000	          0.00000000	          0.00000000	          0.00000000	          0.73985600	          0.00000000	         -0.22117200	          0.00000000	          0.00000000	          0.00000000	
          0.00350000	        -17.40415700	        160.94525900	          5.00796500	          0.13340600	          0.00600000	         -0.22206000	          0.00000000	          0.16720400	          0.00000000	          0.00000000	          0.00000000	          0.00000000	          0.73985600	          0.00000000	         -0.22117200	          0.00000000	          0.00000000	          0.00000000	
          0.00400000	        -17.76028500	        163.06823100	          5.01155200	          0.13352600	          0.00600000	         -0.22204000	          0.00000000	          0.16735800	          0.00000000	          0.00000000	          0.00000000	          0.00000000	          0.73985600	          0.00000000	         -0.22117200	          0.00000000	          0.00000000	          0.00000000	
          0.00450000	        -18.11958300	        165.20151200	          5.01469300	          0.13364700	          0.00600000	         -0.22202000	          0.00000000	          0.16752200	          0.00000000	          0.00000000	          0.00000000	          0.00000000	          0.73985600	          0.00000000	         -0.22117200	          0.00000000	          0.00000000	          0.00000000	
          0.00500000	        -18.48205300	        167.34495200	          5.01738000	          0.13376900	          0.00600000	         -0.22200000	          0.00000000	          0.16769600	          0.00000000	          0.00000000	          0.00000000	          0.00000000	          0.73985600	          0.00000000	         -0.22117200	          0.00000000	          0.00000000	          0.00000000	
          0.00550000	        -18.84769400	        169.49839800	          5.01960200	          0.13389200	          0.00600000	         -0.22197900	          0.00000000	          0.16788000	          0.00000000	          0.00000000	          0.00000000	          0.00000000	          0.73985600	          0.00000000	         -0.22117200	          0.00000000	          0.00000000	          0.00000000	
          0.00600000	        -19.21650400	        171.66169700	          5.02134900	          0.13401500	          0.00600000	         -0.22195800	          0.00000000	          0.16807400	          0.00000000	          0.00000000	          0.00000000	          0.00000000	          0.73985600	          0.00000000	         -0.22117200	          0.00000000	          0.00000000	          0.00000000	
          0.00650000	        -19.58848200	        173.83468900	          5.02261200	          0.13413900	          0.00600000	         -0.22193700	          0.00000000	          0.16827900	          0.00000000	          0.00000000	          0.00000000	          0.00000000	          0.73985600	          0.00000000	         -0.22117200	          0.00000000	          0.00000000	          0.00000000	
          0.00700000	        -19.96362300	        176.01721700	          5.02338000	          0.13426300	          0.00600000	         -0.22191500	          0.00000000	          0.16849500	          0.00000000	          0.00000000	          0.00000000	          0.00000000	          0.73985600	          0.00000000	         -0.22117200	          0.00000000	          0.00000000	          0.00000000	
          0.00750000	        -20.34192200	        178.20911700	          5.02364300	          0.13438800	          0.00600000	         -0.22189400	          0.00000000	          0.16872200	          0.00000000	          0.00000000	          0.00000000	          0.00000000	          0.73985600	          0.00000000	         -0.22117200	          0.00000000	          0.00000000	          0.00000000	
          0.00800000	        -20.72337100	        180.41022500	          5.02339000	          0.13451400	          0.00600000	         -0.22187200	          0.00000000	          0.16895900	          0.00000000	          0.00000000	          0.00000000	          0.00000000	          0.73985600	          0.00000000	         -0.22117200	          0.00000000	          0.00000000	          0.00000000	
